<svg width="228" height="283" viewBox="0 0 228 283" fill="none" xmlns="http://www.w3.org/2000/svg">
<path fill-rule="evenodd" clip-rule="evenodd" d="M225.558 114.389V271.087C225.558 274.448 225.558 276.128 224.904 277.411C224.329 278.54 223.411 279.458 222.282 280.033C220.998 280.687 219.318 280.687 215.958 280.687H11.6C8.23968 280.687 6.55953 280.687 5.27606 280.033C4.14708 279.458 3.2292 278.54 2.65396 277.411C2 276.128 2 274.448 2 271.087V114.389C2 52.3181 52.0451 2 113.779 2C175.513 2 225.558 52.3181 225.558 114.389Z" fill="#5D00FF"/>
<path d="M224.904 277.411L226.24 278.092L226.24 278.092L224.904 277.411ZM222.282 280.033L222.963 281.37L222.963 281.37L222.282 280.033ZM5.27606 280.033L4.59506 281.37L4.59507 281.37L5.27606 280.033ZM2.65396 277.411L1.31745 278.092L1.31745 278.092L2.65396 277.411ZM224.058 114.389V271.087H227.058V114.389H224.058ZM224.058 271.087C224.058 272.792 224.057 273.981 223.981 274.906C223.907 275.814 223.769 276.335 223.567 276.73L226.24 278.092C226.693 277.204 226.882 276.244 226.971 275.15C227.059 274.075 227.058 272.743 227.058 271.087H224.058ZM223.567 276.73C223.136 277.577 222.448 278.265 221.601 278.697L222.963 281.37C224.374 280.651 225.521 279.504 226.24 278.092L223.567 276.73ZM221.601 278.697C221.206 278.898 220.684 279.036 219.777 279.111C218.851 279.186 217.663 279.187 215.958 279.187V282.187C217.613 282.187 218.945 282.189 220.021 282.101C221.114 282.011 222.074 281.823 222.963 281.37L221.601 278.697ZM215.958 279.187H11.6V282.187H215.958V279.187ZM11.6 279.187C9.89509 279.187 8.70662 279.186 7.78136 279.111C6.87361 279.036 6.35208 278.898 5.95704 278.697L4.59507 281.37C5.48351 281.823 6.44379 282.011 7.53706 282.101C8.61282 282.189 9.94459 282.187 11.6 282.187V279.187ZM5.95706 278.697C5.11031 278.265 4.4219 277.577 3.99047 276.73L1.31745 278.092C2.0365 279.504 3.18386 280.651 4.59506 281.37L5.95706 278.697ZM3.99047 276.73C3.78919 276.335 3.65093 275.814 3.57676 274.906C3.50117 273.981 3.5 272.792 3.5 271.087H0.5C0.5 272.743 0.498833 274.075 0.586727 275.15C0.676051 276.244 0.86477 277.204 1.31745 278.092L3.99047 276.73ZM3.5 271.087V114.389H0.5V271.087H3.5ZM3.5 114.389C3.5 53.1389 52.8812 3.5 113.779 3.5V0.5C51.209 0.5 0.5 51.4974 0.5 114.389H3.5ZM113.779 3.5C174.677 3.5 224.058 53.1389 224.058 114.389H227.058C227.058 51.4974 176.349 0.5 113.779 0.5V3.5Z" fill="white"/>
</svg>
