<svg width="147" height="146" viewBox="0 0 147 146" fill="none" xmlns="http://www.w3.org/2000/svg">
<path d="M74.352 110.547L73.4605 108.793L72.569 110.547L56.8076 141.563L57.2656 106.775L57.2915 104.807L55.6869 105.946L27.3169 126.085L43.8893 95.4947L44.8267 93.7645L42.8765 94.0274L8.39712 98.6753L37.2874 79.2902L38.9215 78.1938L37.0725 77.5202L4.38257 65.6124L38.9723 61.8738L40.9288 61.6624L39.6046 60.2067L16.1929 34.4711L48.558 47.2354L50.3887 47.9573L49.8926 46.053L41.1226 12.3853L63.8486 38.7284L65.134 40.2184L65.5798 38.3017L73.4605 4.41474L81.3411 38.3017L81.7869 40.2184L83.0723 38.7284L105.798 12.3853L97.0283 46.053L96.5322 47.9573L98.3629 47.2354L130.728 34.4711L107.316 60.2067L105.992 61.6624L107.949 61.8738L142.538 65.6124L109.848 77.5202L107.999 78.1938L109.633 79.2902L138.524 98.6753L104.044 94.0274L102.094 93.7645L103.032 95.4947L119.604 126.085L91.2341 105.946L89.6294 104.807L89.6553 106.775L90.1133 141.563L74.352 110.547Z" stroke="white" stroke-opacity="0.5" stroke-width="2"/>
</svg>
