<svg width="224" height="280" viewBox="0 0 224 280" fill="none" xmlns="http://www.w3.org/2000/svg">
<path fill-rule="evenodd" clip-rule="evenodd" d="M224 113.167V269.782C224 273.143 224 274.823 223.346 276.106C222.771 277.235 221.853 278.153 220.724 278.728C219.441 279.382 217.76 279.382 214.4 279.382H10.0421C6.68182 279.382 5.00167 279.382 3.7182 278.728C2.58922 278.153 1.67134 277.235 1.0961 276.106C0.442139 274.823 0.442139 273.143 0.442139 269.782L0.442172 113.084C0.442172 51.013 50.4873 0.694824 112.221 0.694824C173.955 0.694824 224 51.013 224 113.084C224 113.111 224 113.139 224 113.167Z" fill="#F7CC47"/>
</svg>
